<mxfile host="app.diagrams.net" modified="2023-03-29T03:32:55.727Z" agent="Mozilla/5.0 (Windows NT 10.0; Win64; x64) AppleWebKit/537.36 (KHTML, like Gecko) Chrome/111.0.0.0 Safari/537.36" version="21.1.1" etag="SwQR6SCldWP5DAWZn-aL" type="github">
  <diagram name="페이지-1" id="I8e5lSfXxlh5LA0LPD_9">
    <mxGraphModel>
      <root>
        <mxCell id="0" />
        <mxCell id="1" parent="0" />
      </root>
    </mxGraphModel>
  </diagram>
</mxfile>
